<svg width="100" height="100" viewBox="0 0 100 100" fill="none" xmlns="http://www.w3.org/2000/svg">
<rect width="100" height="100" fill="white"/>
<path d="M66.0322 12.1162C66.1483 11.8537 66.4427 11.7449 66.6807 11.8506C75.0668 15.5857 81.943 22.0138 86.2383 30.083C84.8614 28.8835 83.1854 28.0344 81.3799 27.6611C78.5477 27.0756 75.5428 27.6844 73.1611 29.3252C70.7794 30.9662 69.1404 33.5578 68.6787 36.4131C68.2222 39.2364 68.9316 42.2061 70.6611 44.4961C73.7789 48.6235 79.0605 48.7529 81.0078 48.7529C82.1238 48.753 86.2432 48.6801 88.9775 48.6309C81.2023 51.2403 74.4195 56.3639 69.7607 63.1514C64.7817 70.4056 62.4774 79.1238 63.2637 87.8701C63.2855 88.1139 63.1427 88.3276 62.9336 88.3975C57.4822 90.2112 51.7074 90.8635 45.9834 90.3076C41.2833 89.8511 36.7074 88.588 32.4521 86.585C35.6319 87.2916 38.9813 87.3122 42.1768 86.5215C51.4341 84.2305 57.2901 74.6377 55.8857 65.25C55.1971 60.6472 52.858 56.4518 49.3037 53.4473L49.2803 53.4297L48.8076 53.0811C46.4568 51.3814 44.3251 50.3412 41.376 49.7295C38.2595 49.0831 34.2405 48.918 28.1045 48.918H28.0967L15.0918 49.125C25.0642 47.5496 34.5968 44.7029 43.0996 39.0654C53.1239 32.4191 61.1687 23.1101 66.0322 12.1162Z" fill="black" stroke="black"/>
</svg>
