<svg width="100" height="100" viewBox="0 0 100 100" fill="none" xmlns="http://www.w3.org/2000/svg">
<path fill-rule="evenodd" clip-rule="evenodd" d="M95.8984 69.8085C91.4747 79.7514 83.7709 87.8738 74.0759 92.8169C64.3808 97.7601 53.2823 99.2243 42.637 96.9647C31.9916 94.705 22.445 88.8585 15.594 80.4031C8.74301 71.9477 5.00315 61.3963 5 50.5137C4.99686 39.6312 8.73062 29.0776 15.5767 20.6182C22.4228 12.1589 31.9661 6.30686 42.6101 4.04103C53.2542 1.77521 64.3535 3.23302 74.0514 8.17059C83.7493 13.1082 91.4461 21.2113 95.8756 31.1516C92.7203 25.5498 88.2165 20.8365 82.8369 17.3312C80.5373 15.7581 77.9062 14.7358 75.1478 14.3434C72.3893 13.951 69.5776 14.1991 66.9304 15.0685C64.2833 15.938 61.872 17.4053 59.8834 19.3568C57.8948 21.3083 56.3823 23.6916 55.4631 26.3218C54.544 28.9521 54.243 31.7587 54.5833 34.524C54.9237 37.2894 55.8963 39.9392 57.4258 42.2681C58.9553 44.597 61.0005 46.5424 63.403 47.9534C65.8055 49.3645 68.4835 50.2034 71.2624 50.405C77.5324 50.975 93.3499 50.4525 93.3499 50.4525C83.3821 51.7293 74.026 56.1869 66.7201 63.087C59.4142 69.9871 54.4849 79.0265 52.6412 88.9052L52.6174 88.9055C60.9261 90.8326 69.6357 90.0132 77.4392 86.5702C85.2427 83.1273 91.7207 77.2446 95.8984 69.8085ZM30.6148 26.0277C25.205 32.8608 22.1011 41.532 22.1011 50.2625C30.6386 48.1986 38.1953 43.3314 43.659 36.4541C49.1639 29.5249 52.0198 21.0247 52.2149 12.2151C43.6812 14.2934 36.0668 19.1415 30.6148 26.0277ZM27.6255 70.6284C28.9007 72.6522 30.3924 74.3367 32.4741 75.5669C34.4641 76.7428 36.7223 77.3844 39.0312 77.4299C41.3401 77.4753 43.6217 76.9231 45.6561 75.8265C47.6905 74.7298 49.4091 73.1257 50.6461 71.1687C51.8832 69.2117 52.597 66.968 52.7187 64.6536C52.8405 62.3393 52.3661 60.0326 51.3412 57.9558C50.3163 55.879 48.7756 54.1022 46.8675 52.7967C44.9595 51.4911 42.7485 50.7009 40.4477 50.5022C34.3202 50.1222 22.1 50.69 22.1 50.69C22.1909 57.703 24.038 64.5866 27.6255 70.6284Z" fill="black"/>
</svg>
