<svg width="100" height="100" viewBox="0 0 100 100" fill="none" xmlns="http://www.w3.org/2000/svg">
<rect width="100" height="100" fill="white"/>
<path d="M63.4727 19.417C63.5907 19.1526 63.8853 19.0464 64.1201 19.1523C70.8115 22.1734 76.3205 27.2835 79.8398 33.6865C78.7636 32.841 77.4975 32.2399 76.1436 31.96C73.7837 31.4721 71.2804 31.9786 69.2959 33.3457C67.3114 34.713 65.9454 36.872 65.5605 39.251C65.1802 41.6032 65.7714 44.0776 67.2129 45.9863C69.8136 49.4295 74.2146 49.5332 75.8193 49.5332C76.6687 49.5332 79.622 49.482 81.8457 49.4424C75.631 51.6519 70.2176 55.8121 66.4678 61.2754C62.3754 67.2378 60.4676 74.3961 61.0811 81.585C61.102 81.8317 60.9572 82.0452 60.75 82.1133C56.3025 83.5731 51.5973 84.0946 46.9326 83.6416C43.3143 83.2902 39.7856 82.3569 36.4785 80.8887C38.8913 81.3235 41.3994 81.2853 43.8037 80.6904C51.4888 78.7888 56.3444 70.8287 55.1797 63.043C54.6084 59.2248 52.6681 55.7444 49.7197 53.252L49.6963 53.2344L49.3047 52.9453C47.3574 51.5375 45.5876 50.6736 43.1406 50.166C40.5596 49.6307 37.2354 49.4951 32.1738 49.4951H32.166L22.6279 49.6465C30.4363 48.3093 37.8993 45.9642 44.5928 41.5264C52.8271 36.0668 59.4461 28.4328 63.4727 19.417Z" fill="black" stroke="black"/>
</svg>
