<svg width="100" height="100" viewBox="0 0 100 100" fill="none" xmlns="http://www.w3.org/2000/svg">
<path fill-rule="evenodd" clip-rule="evenodd" d="M84 64.6338C80.642 72.1695 74.7942 78.3254 67.4348 82.0718C60.0753 85.8182 51.6506 86.9279 43.5698 85.2153C35.4891 83.5027 28.2423 79.0717 23.0418 72.6634C17.8413 66.2551 15.0024 58.2582 15 50.0104C14.9976 41.7626 17.8319 33.7641 23.0287 27.3528C28.2255 20.9415 35.4697 16.5062 43.5494 14.789C51.6292 13.0717 60.0546 14.1766 67.4162 17.9188C74.7778 21.6609 80.6203 27.8023 83.9827 35.336C81.5875 31.0904 78.1687 27.5182 74.0852 24.8615C72.3395 23.6693 70.3424 22.8945 68.2484 22.5971C66.1545 22.2997 64.0201 22.4878 62.0108 23.1467C60.0014 23.8056 58.171 24.9177 56.6614 26.3967C55.1519 27.8758 54.0037 29.682 53.306 31.6755C52.6083 33.669 52.3798 35.7961 52.6382 37.8919C52.8965 39.9878 53.6348 41.996 54.7959 43.7611C55.9569 45.5261 57.5094 47.0005 59.3331 48.07C61.1568 49.1394 63.1897 49.7752 65.2991 49.928C70.0586 50.36 82.0655 49.964 82.0655 49.964C74.499 50.9317 67.3969 54.3101 61.8511 59.5396C56.3053 64.7692 52.5635 71.6201 51.164 79.1071L51.1459 79.1073C57.4529 80.5678 64.0643 79.9468 69.9878 77.3374C75.9114 74.7281 80.8288 70.2696 84 64.6338ZM34.4439 31.4526C30.3374 36.6313 27.9812 43.2032 27.9812 49.82C34.462 48.2558 40.1982 44.567 44.3457 39.3547C48.5244 34.1031 50.6923 27.6608 50.8404 20.984C44.3625 22.5592 38.5825 26.2335 34.4439 31.4526ZM32.1748 65.2552C33.1427 66.7891 34.2751 68.0657 35.8553 68.9981C37.3659 69.8893 39.0801 70.3755 40.8327 70.41C42.5854 70.4445 44.3173 70.026 45.8616 69.1948C47.4059 68.3636 48.7105 67.1479 49.6495 65.6647C50.5885 64.1815 51.1304 62.481 51.2228 60.727C51.3152 58.973 50.9551 57.2247 50.1771 55.6507C49.3991 54.0767 48.2296 52.7301 46.7812 51.7406C45.3328 50.7512 43.6545 50.1523 41.908 50.0017C37.2567 49.7137 27.9804 50.144 27.9804 50.144C28.0494 55.4591 29.4516 60.6762 32.1748 65.2552Z" fill="black"/>
</svg>
