<svg width="100" height="100" viewBox="0 0 100 100" fill="none" xmlns="http://www.w3.org/2000/svg">
<path fill-rule="evenodd" clip-rule="evenodd" d="M96 69.8085C91.5713 79.7514 83.859 87.8738 74.1531 92.8169C64.4472 97.7601 53.3363 99.2243 42.6791 96.9647C32.0218 94.705 22.4645 88.8585 15.6058 80.4031C8.7472 71.9477 5.00315 61.3963 5 50.5137C4.99685 39.6312 8.73479 29.0776 15.5885 20.6182C22.4423 12.1589 31.9962 6.30686 42.6522 4.04103C53.3081 1.77521 64.4198 3.23302 74.1286 8.17059C83.8374 13.1082 91.5544 21.2261 95.9888 31.1664L95.984 31.1638C92.8185 25.5454 88.5158 20.8718 83.0821 17.3925L82.9508 17.292C80.6124 15.6942 77.7665 14.497 74.9593 14.115C72.1521 13.7331 69.461 14.1771 66.78 15.092C64.099 16.0069 61.6687 17.5339 59.6822 19.5517C57.6957 21.5694 56.2079 24.0223 55.337 26.7153C54.4661 29.4082 54.2362 32.267 54.6655 35.0642C55.0948 37.8615 56.1715 40.5202 57.81 42.8289C59.4485 45.1376 61.6036 47.0326 64.104 48.3633C66.5434 49.6615 69.2726 50.4525 72.0498 50.4525L94.0193 50.4525C83.9536 51.6452 74.3521 56.0177 66.9506 62.9354C59.5491 69.8531 54.5542 78.9521 52.6945 88.9052C60.9956 90.8246 69.67 90.0178 77.4735 86.5908C85.3061 83.1509 91.8076 77.2618 95.9985 69.8105L96 69.8085ZM28.4437 72.0175L28.5863 72.2075C29.96 74.0275 31.6441 75.2951 33.7246 76.2221C35.805 77.1491 38.0861 77.5318 40.3543 77.3344C42.6225 77.1371 44.8037 76.3661 46.6937 75.0937C48.5838 73.8213 50.1209 72.089 51.1612 70.0589C52.2015 68.0288 52.711 65.7674 52.642 63.4862C52.573 61.205 51.9278 58.9787 50.7667 57.0155C49.6056 55.0524 47.9667 53.4166 46.0032 52.2612C44.0398 51.1059 42.2275 50.5118 39.9515 50.4525H39.1906L22.1191 50.4525C22.1191 58.0833 24.2681 65.6129 28.4437 72.0175ZM22.1217 50.0494C22.2218 41.2972 25.2349 32.8266 30.6868 25.9732C36.1458 19.1107 43.7386 14.2611 52.2651 12.1907C52.1649 20.9502 49.1469 29.4272 43.6871 36.2832C38.2287 43.1374 30.641 47.9807 22.1217 50.0494Z" fill="black"/>
</svg>
