<svg width="24" height="24" viewBox="0 0 24 24" fill="none" xmlns="http://www.w3.org/2000/svg">
<path d="M5.73058 14.5859C5.52237 14.6289 5.40093 14.3523 5.5648 14.2169C7.50722 12.6113 7.50722 11.3887 5.5648 9.78312C5.40093 9.64767 5.52228 9.37222 5.73028 9.41624C9.12034 10.1336 10.6085 11.2368 10.6085 12C10.6085 12.768 9.40991 13.826 5.73058 14.5859Z" fill="white"/>
<path d="M11.0394 17.3415C10.8764 17.4042 10.7195 17.239 10.7826 17.0762C11.9852 13.9735 11.9852 10.0265 10.7826 6.92377C10.7195 6.76097 10.8766 6.59616 11.0393 6.65976C14.6827 8.08497 15.6301 10.4109 15.6301 12C15.6301 13.594 15.0087 15.8127 11.0394 17.3415Z" fill="white"/>
<path d="M16.7859 1.42902C16.6493 1.29251 16.4184 1.41138 16.4504 1.60183C17.7479 9.32229 17.7479 14.6777 16.4504 22.3982C16.4184 22.5886 16.6482 22.7086 16.7848 22.572C23.4167 15.9424 24.0525 8.69168 16.7859 1.42902Z" fill="white"/>
<path d="M4.8695 12C4.8695 12.7594 4.22714 13.375 3.43475 13.375C2.64236 13.375 2 12.7594 2 12C2 11.2406 2.64236 10.625 3.43475 10.625C4.22714 10.625 4.8695 11.2406 4.8695 12Z" fill="white"/>
</svg>
