<svg width="24" height="24" viewBox="0 0 24 24" fill="none" xmlns="http://www.w3.org/2000/svg">
<path d="M6.5488 22.3247C6.41972 22.4931 6.16036 22.3656 6.20877 22.159C7.66374 15.9503 7.66374 8.04968 6.20877 1.84097C6.16036 1.63438 6.42702 1.50131 6.56311 1.6641C10.9489 6.91048 10.8084 8.58278 11.1452 9.64463C11.1741 9.73602 11.1387 9.83826 11.06 9.89294C7.95045 12.052 10.8867 16.6655 6.5488 22.3247Z" fill="white"/>
<path d="M18.4421 1.53089C18.5879 1.38515 18.8256 1.53429 18.7655 1.73149C16.8559 7.99303 16.8559 16.007 18.7655 22.2685C18.8256 22.4657 18.5839 22.6193 18.4331 22.4787C12.7447 17.1769 13.4337 15.5423 13.0771 14.4777C13.0418 14.3724 13.0858 14.2496 13.1833 14.1964C17.1791 12.0156 12.7105 7.25907 18.4421 1.53089Z" fill="white"/>
</svg>
