<svg width="24" height="24" viewBox="0 0 24 24" fill="none" xmlns="http://www.w3.org/2000/svg">
<path fill-rule="evenodd" clip-rule="evenodd" d="M14.9942 3.3803C14.8014 3.31546 14.6578 3.55219 14.7895 3.70719C15.3362 4.35047 15.8256 5.13564 15.8256 5.98346C15.8256 8.16426 14.113 9.93216 12.0004 9.93216C9.88775 9.93216 8.17512 8.16426 8.17512 5.98346C8.17512 5.13048 8.6714 4.23784 9.22231 3.546C9.34901 3.3869 9.19996 3.14596 9.00759 3.212C6.22858 4.16601 3.76793 6.33067 2.72868 8.91675C2.65402 9.10254 2.88582 9.26564 3.05687 9.16155C3.74517 8.7427 4.58755 8.49627 5.49744 8.49627C7.82134 8.49627 9.70522 10.1034 9.70522 12.086C9.70522 14.0685 7.82134 15.6757 5.49744 15.6757C4.58709 15.6757 3.74454 15.4288 3.05616 15.0094C2.88514 14.9052 2.65363 15.0683 2.72881 15.2539C3.76832 17.8199 6.2282 19.8559 9.00677 20.7903C9.19955 20.8551 9.34313 20.6185 9.2114 20.4635C8.6648 19.8205 8.17512 19.036 8.17512 18.1885C8.17512 16.0077 9.88775 14.2398 12.0004 14.2398C14.113 14.2398 15.8256 16.0077 15.8256 18.1885C15.8256 19.0361 15.3359 19.8206 14.7893 20.4636C14.6576 20.6185 14.8011 20.8551 14.9939 20.7903C17.7725 19.856 20.2312 17.8198 21.2705 15.2536C21.3457 15.068 21.1143 14.905 20.9433 15.0092C20.2552 15.4285 19.4134 15.6757 18.5033 15.6757C16.1794 15.6757 14.2955 14.0685 14.2955 12.086C14.2955 10.1034 16.1794 8.49627 18.5033 8.49627C19.4134 8.49627 20.2556 8.74301 20.9439 9.1621C21.1149 9.26624 21.3464 9.10321 21.2712 8.91762C20.2317 6.35147 17.7727 4.31465 14.9942 3.3803Z" fill="white"/>
<path d="M14.9942 3.3803C14.8014 3.31546 14.6578 3.55219 14.7895 3.70719C15.3362 4.35047 15.8256 5.13564 15.8256 5.98346C15.8256 8.16426 14.113 9.93216 12.0004 9.93216C9.88775 9.93216 8.17512 8.16426 8.17512 5.98346C8.17512 5.13048 8.6714 4.23784 9.22231 3.546C9.34901 3.3869 9.19996 3.14596 9.00759 3.212C6.22858 4.16601 3.76793 6.33067 2.72868 8.91675C2.65402 9.10254 2.88582 9.26564 3.05687 9.16155C3.74517 8.7427 4.58755 8.49627 5.49744 8.49627C7.82134 8.49627 9.70522 10.1034 9.70522 12.086C9.70522 14.0685 7.82134 15.6757 5.49744 15.6757C4.58709 15.6757 3.74454 15.4288 3.05616 15.0094C2.88514 14.9052 2.65363 15.0683 2.72881 15.2539C3.76832 17.8199 6.2282 19.8559 9.00677 20.7903C9.19955 20.8551 9.34313 20.6185 9.2114 20.4635C8.6648 19.8205 8.17512 19.036 8.17512 18.1885C8.17512 16.0077 9.88775 14.2398 12.0004 14.2398C14.113 14.2398 15.8256 16.0077 15.8256 18.1885C15.8256 19.0361 15.3359 19.8206 14.7893 20.4636C14.6576 20.6185 14.8011 20.8551 14.9939 20.7903C17.7725 19.856 20.2312 17.8198 21.2705 15.2536C21.3457 15.068 21.1143 14.905 20.9433 15.0092C20.2552 15.4285 19.4134 15.6757 18.5033 15.6757C16.1794 15.6757 14.2955 14.0685 14.2955 12.086C14.2955 10.1034 16.1794 8.49627 18.5033 8.49627C19.4134 8.49627 20.2556 8.74301 20.9439 9.1621C21.1149 9.26624 21.3464 9.10321 21.2712 8.91762C20.2317 6.35147 17.7727 4.31465 14.9942 3.3803Z" fill="white"/>
</svg>
